PathFileType	4	(X/Y/Z)	/Users/itak/Documents/Research/Walk-IL/dataset/trc/00286_00010.trc
DataRate	CameraRate	NumFrames	NumMarkers	Units	OrigDataRate	OrigDataStartFrame	OrigNumFrames
100.000000	100.000000	4	54	mm	100.000000	0	648
Frame#	Time	RPSI			LPSI			L3			STRN			T10			C7			CLAV			RBAK			LBAK			LSHO			LUPA			LAEL			LAOL			LWTS			LWPS			LFRA			LIFD			LHPS			LHTS			RSHO			RUPA			RAEL			RAOL			RWTS			RWPS			RFRA			RIFD			RHTS			RHPS			RBHD			LFHD			RFHD			LBHD			LHIP			RASI			LASI			LKNE			LTHI			LANK			LTIP			LTOE			LMT1			LMT5			LHEE			RKNE			RANK			RTIP			RTOE			RMT1			RMT5			RHEE			RHIP			RTHI			*53			
		X1	Y1	Z1	X2	Y2	Z2	X3	Y3	Z3	X4	Y4	Z4	X5	Y5	Z5	X6	Y6	Z6	X7	Y7	Z7	X8	Y8	Z8	X9	Y9	Z9	X10	Y10	Z10	X11	Y11	Z11	X12	Y12	Z12	X13	Y13	Z13	X14	Y14	Z14	X15	Y15	Z15	X16	Y16	Z16	X17	Y17	Z17	X18	Y18	Z18	X19	Y19	Z19	X20	Y20	Z20	X21	Y21	Z21	X22	Y22	Z22	X23	Y23	Z23	X24	Y24	Z24	X25	Y25	Z25	X26	Y26	Z26	X27	Y27	Z27	X28	Y28	Z28	X29	Y29	Z29	X30	Y30	Z30	X31	Y31	Z31	X32	Y32	Z32	X33	Y33	Z33	X34	Y34	Z34	X35	Y35	Z35	X36	Y36	Z36	X37	Y37	Z37	X38	Y38	Z38	X39	Y39	Z39	X40	Y40	Z40	X41	Y41	Z41	X42	Y42	Z42	X43	Y43	Z43	X44	Y44	Z44	X45	Y45	Z45	X46	Y46	Z46	X47	Y47	Z47	X48	Y48	Z48	X49	Y49	Z49	X50	Y50	Z50	X51	Y51	Z51	X52	Y52	Z52	X53	Y53	Z53	X54	Y54	Z54	

1	0	-112.5358352661133	1002.648681640625	1297.672973632812	-87.49774932861328	993.6826171875	1123.719970703125	-82.55386352539062	1074.064453125	1206.275268554688	172.6058044433594	1248.414306640625	1235.9697265625	-93.48487091064453	1190.308349609375	1197.48291015625	-40.95367050170898	1434.615478515625	1184.46826171875	111.7817459106445	1348.583862304688	1220.343872070312	-106.2265625	1299.408447265625	1254.073486328125	-38.62899780273438	1395.668823242188	1078.888916015625	60.93316650390625	1398.307495117188	1046.275146484375	51.96072769165039	1280.224731445312	970.54931640625	72.04364013671875	1076.838989257812	962.5079345703125	-8.855342864990234	1062.534790039062	997.6473999023438	137.8004455566406	857.5875854492188	1038.540893554688	126.253059387207	844.2344970703125	968.8943481445312	91.29529571533203	973.082275390625	961.0108642578125	146.1163330078125	670.5216674804688	1042.927001953125	132.2800750732422	756.2841796875	974.6776123046875	169.0351715087891	760.1672973632812	1029.236694335938	0.3519246280193329	1413.433837890625	1352.684692382812	-16.09077835083008	1354.50732421875	1417.112670898438	-23.92617988586426	1090.6162109375	1476.90625	-47.74673080444336	1077.8671875	1386.188232421875	120.1368408203125	891.2296752929688	1431.637817382812	75.76399993896484	876.1871337890625	1502.920043945312	9.685169219970703	1026.838134765625	1490.869873046875	165.1614837646484	713.6336059570312	1425.494262695312	175.1553344726562	786.1033325195312	1450.108764648438	125.9456253051758	772.2516479492188	1498.481079101562	-35.46136093139648	1590.061157226562	1253.434936523438	154.8652801513672	1635.492431640625	1168.995849609375	135.5479888916016	1635.568725585938	1259.179809570312	-3.324880599975586	1580.264038085938	1112.1474609375	-9.746438980102539	949.78515625	1037.210327148438	104.1860122680664	961.9999389648438	1355.412231445312	122.0446548461914	959.7301635742188	1104.630859375	82.81385803222656	487.6342468261719	1075.7958984375	63.82576370239258	628.99072265625	1053.332153320312	-27.0670108795166	46.7301139831543	1088.918701171875	25.20719337463379	261.7433471679688	1074.093505859375	170.0399017333984	39.59452438354492	1176.661254882812	94.56296539306641	31.11966514587402	1204.628540039062	99.19070434570312	44.52154159545898	1094.322021484375	-81.25907135009766	35.79666519165039	1139.028198242188	58.33284378051758	484.1526184082031	1382.472778320312	-40.166748046875	44.45447158813477	1353.265502929688	63.88649368286133	358.4129638671875	1371.298950195312	157.8229217529297	46.98830032348633	1309.184814453125	102.8246688842773	43.47528076171875	1267.329833984375	62.12556457519531	36.90810775756836	1377.4453125	-89.72574615478516	41.32785797119141	1299.931396484375	-18.29286766052246	950.6494750976562	1409.005615234375	nan	nan	nan	nan	nan	nan	
2	0.01	-112.0469741821289	1002.763977050781	1297.777954101562	-87.44509124755859	993.8419189453125	1123.755249023438	-82.08818054199219	1074.126708984375	1206.389770507812	172.7576751708984	1248.442260742188	1235.910522460938	-93.29056549072266	1190.294311523438	1197.567260742188	-40.71868133544922	1434.596801757812	1184.586669921875	111.8825302124023	1348.620971679688	1220.363037109375	-106.0592956542969	1299.397338867188	1254.181640625	-38.52708435058594	1395.690551757812	1079.025268554688	61.04779434204102	1398.346435546875	1046.296264648438	51.93408203125	1280.280151367188	970.5479736328125	71.70784759521484	1076.862670898438	962.444580078125	-9.018198013305664	1062.62060546875	997.712890625	137.1055450439453	857.3909301757812	1038.346923828125	125.4604110717773	844.1063842773438	968.731201171875	90.77886199951172	973.0391845703125	960.9335327148438	144.8708953857422	670.3158569335938	1042.6904296875	131.1663818359375	756.1234741210938	974.4724731445312	168.0597229003906	759.8595581054688	1028.997802734375	0.5957080721855164	1413.342651367188	1352.742309570312	-15.96109867095947	1354.499755859375	1417.162963867188	-24.00461578369141	1090.613159179688	1476.841186523438	-47.78012084960938	1077.975219726562	1386.119384765625	119.3242492675781	890.7168579101562	1432.169799804688	74.75309753417969	875.8117065429688	1503.22265625	9.215041160583496	1026.7412109375	1490.951904296875	163.8040466308594	713.0574951171875	1426.26904296875	174.0060882568359	785.3840942382812	1450.967041015625	124.5200881958008	771.7808227539062	1499.074829101562	-35.15377044677734	1590.183471679688	1253.619873046875	155.1018981933594	1635.436157226562	1168.867553710938	135.9307861328125	1635.52685546875	1259.044677734375	-3.195645570755005	1580.349975585938	1112.233764648438	-9.639060020446777	949.7803955078125	1037.194091796875	104.4464569091797	962.0021362304688	1355.3779296875	122.2685317993164	959.744140625	1104.519165039062	82.78643798828125	487.6386108398438	1075.83349609375	63.80972290039062	628.9833984375	1053.369873046875	-27.04716873168945	46.72491836547852	1088.926391601562	25.19360733032227	261.7518310546875	1074.132446289062	170.0387878417969	39.6033821105957	1176.653442382812	94.5679931640625	31.14024543762207	1204.612670898438	99.09510040283203	44.56457901000977	1094.265258789062	-81.27119445800781	35.78451919555664	1139.006958007812	58.46241760253906	484.2088317871094	1382.328735351562	-40.21601104736328	44.43482971191406	1353.295043945312	63.93476104736328	358.4109497070312	1371.249633789062	157.7492828369141	47.31589889526367	1309.168090820312	102.7421493530273	43.57455444335938	1267.33642578125	62.11442184448242	36.91557693481445	1377.44677734375	-89.75389862060547	41.2646598815918	1299.947509765625	-18.10988235473633	950.8028564453125	1409.091674804688	nan	nan	nan	nan	nan	nan	
3	0.02	-111.4687423706055	1002.905395507812	1297.902587890625	-87.35356140136719	994.072021484375	1123.822631835938	-81.53868103027344	1074.202270507812	1206.541015625	172.9691009521484	1248.473999023438	1235.848999023438	-92.99891662597656	1190.271850585938	1197.698608398438	-40.41323852539062	1434.578369140625	1184.739013671875	112.0424652099609	1348.669189453125	1220.390747070312	-105.8139343261719	1299.368041992188	1254.333251953125	-38.37334442138672	1395.7138671875	1079.1953125	61.21200561523438	1398.3857421875	1046.32666015625	51.90068817138672	1280.344482421875	970.5537109375	71.26204681396484	1076.88427734375	962.3761596679688	-9.239023208618164	1062.734375	997.8237915039062	136.2151794433594	857.1456298828125	1038.120239257812	124.4639434814453	843.9446411132812	968.5336303710938	90.12633514404297	972.9852294921875	960.8424072265625	143.2919616699219	670.0489501953125	1042.410888671875	129.7849426269531	755.9157104492188	974.2271118164062	166.8179016113281	759.4762573242188	1028.71484375	0.9211515784263611	1413.238891601562	1352.828002929688	-15.77037143707275	1354.479248046875	1417.225341796875	-24.1408748626709	1090.62646484375	1476.77001953125	-47.8239631652832	1078.107299804688	1386.036743164062	118.2702560424805	890.052978515625	1432.868408203125	73.40134429931641	875.333984375	1503.640869140625	8.597769737243652	1026.619018554688	1491.075561523438	161.9857635498047	712.25634765625	1427.290283203125	172.4479827880859	784.4278564453125	1452.04345703125	122.6367263793945	771.1675415039062	1499.849609375	-34.71722412109375	1590.316772460938	1253.862915039062	155.4139709472656	1635.369140625	1168.714965820312	136.4243469238281	1635.473266601562	1258.887084960938	-3.031055450439453	1580.449462890625	1112.356323242188	-9.497325897216797	949.7604370117188	1037.185791015625	104.8134460449219	962.0040893554688	1355.327514648438	122.5370941162109	959.7557983398438	1104.389526367188	82.74242401123047	487.6456604003906	1075.894287109375	63.78310394287109	628.97216796875	1053.42626953125	-27.03496551513672	46.71974563598633	1088.9375	25.17989349365234	261.7640380859375	1074.187377929688	170.0388488769531	39.62051010131836	1176.64306640625	94.57334136962891	31.16425132751465	1204.596069335938	99.00228118896484	44.61523056030273	1094.214477539062	-81.28802490234375	35.77055358886719	1138.98388671875	58.64575958251953	484.267578125	1382.1630859375	-40.27677154541016	44.41049575805664	1353.332885742188	63.99777984619141	358.4049072265625	1371.192016601562	157.6551971435547	47.71509552001953	1309.154418945312	102.6380844116211	43.7122917175293	1267.348999023438	62.10049819946289	36.92491912841797	1377.447875976562	-89.79195404052734	41.18408203125	1299.966674804688	-17.81706619262695	950.984130859375	1409.186645507812	nan	nan	nan	nan	nan	nan	
4	0.03	-110.8352737426758	1003.065002441406	1298.043090820312	-87.21385955810547	994.3741455078125	1123.926635742188	-80.94775390625	1074.286743164062	1206.722778320312	173.2465057373047	1248.5068359375	1235.794189453125	-92.60153961181641	1190.2392578125	1197.881591796875	-40.04668807983398	1434.563354492188	1184.92041015625	112.2738952636719	1348.726318359375	1220.427490234375	-105.4824829101562	1299.315307617188	1254.525268554688	-38.16060256958008	1395.735595703125	1079.389892578125	61.42839431762695	1398.419189453125	1046.367919921875	51.86301422119141	1280.412109375	970.570556640625	70.71802520751953	1076.899291992188	962.311767578125	-9.514952659606934	1062.871826171875	997.9879150390625	135.1584014892578	856.8606567382812	1037.87646484375	123.30126953125	843.7548828125	968.3148803710938	89.36093139648438	972.9234008789062	960.7435913085938	141.4477844238281	669.7317504882812	1042.107055664062	128.1952667236328	755.6694946289062	973.95849609375	165.3556518554688	759.0359497070312	1028.406494140625	1.320151805877686	1413.129272460938	1352.940185546875	-15.51428127288818	1354.443359375	1417.298095703125	-24.34787368774414	1090.66259765625	1476.70166015625	-47.87542343139648	1078.254638671875	1385.946899414062	116.9961166381836	889.253173828125	1433.7265625	71.72631072998047	874.7719116210938	1504.17578125	7.847451686859131	1026.476196289062	1491.24658203125	159.7279663085938	711.2308959960938	1428.53125	170.4897766113281	783.2526245117188	1453.2998046875	120.3247985839844	770.4242553710938	1500.787109375	-34.14942932128906	1590.4462890625	1254.15576171875	155.797119140625	1635.294555664062	1168.54833984375	137.0147094726562	1635.40966796875	1258.7197265625	-2.833956241607666	1580.553344726562	1112.517211914062	-9.324575424194336	949.72998046875	1037.197509765625	105.2948989868164	961.9989013671875	1355.256958007812	122.8358764648438	959.7621459960938	1104.25244140625	82.67942810058594	487.6553649902344	1075.98193359375	63.74550628662109	628.9573364257812	1053.502563476562	-27.03378295898438	46.7149543762207	1088.95166015625	25.16752815246582	261.7807006835938	1074.257446289062	170.0408477783203	39.64817810058594	1176.631103515625	94.57842254638672	31.18978881835938	1204.58056640625	98.92198181152344	44.67110443115234	1094.177734375	-81.30960845947266	35.75532913208008	1138.9609375	58.88454437255859	484.3195190429688	1381.994506835938	-40.34578704833984	44.38287353515625	1353.377807617188	64.07334136962891	358.39208984375	1371.13134765625	157.5436401367188	48.15768051147461	1309.146728515625	102.517707824707	43.88651657104492	1267.368774414062	62.08423614501953	36.93549346923828	1377.448364257812	-89.840087890625	41.09023284912109	1299.987670898438	-17.39798355102539	951.1763305664062	1409.27978515625	nan	nan	nan	nan	nan	nan	
